<svg preserveAspectRatio="none" viewBox="0 0 1273 256" fill="none" xmlns="http://www.w3.org/2000/svg">
<path fill-rule="evenodd" clip-rule="evenodd" d="M0.234721 174.531C0.0296639 174.638 -0.0575552 179.561 0.0398698 185.471C0.243071 197.71 1.0002 199.555 7.74297 204.258C12.9548 207.892 22.7947 212.411 25.4966 212.411C26.0023 212.411 26.7493 212.683 27.1575 213.015C28.0473 213.739 30.4839 214.55 34.8086 215.561C36.5679 215.972 39.2967 216.821 40.8731 217.448C42.4505 218.075 45.8131 218.943 48.3461 219.378C50.8792 219.813 53.7871 220.363 54.8077 220.602C59.1937 221.627 69.8975 223.518 72.7164 223.767C74.4004 223.915 76.4881 224.246 77.3557 224.503C79.7338 225.207 95.6568 227.398 98.3968 227.398C99.7162 227.398 102.217 227.708 103.954 228.086C105.69 228.464 110.374 229.02 114.362 229.321C118.35 229.623 123.786 230.186 126.44 230.574C131.584 231.326 134.132 231.548 142.954 232.015C146.016 232.177 149.357 232.494 150.377 232.719C152.861 233.268 163.956 234.124 175.894 234.688C181.252 234.942 187.097 235.357 188.884 235.613C191.745 236.022 201.714 236.661 205.585 236.684C206.351 236.688 210.108 236.906 213.936 237.167C217.763 237.428 225.488 237.819 231.101 238.037C236.715 238.254 242.959 238.568 244.977 238.733C246.995 238.899 252.215 239.252 256.576 239.516C260.937 239.781 265.78 240.078 267.339 240.177C268.899 240.276 271.821 240.581 273.834 240.854C279.116 241.573 286.927 242.315 292.804 242.656C295.611 242.82 299.16 243.149 300.691 243.389C302.222 243.628 305.144 243.93 307.186 244.06C314.759 244.542 323.971 245.351 326.671 245.773C328.202 246.013 333.212 246.459 337.805 246.766C342.398 247.073 347.115 247.518 348.287 247.755C349.459 247.993 352.044 248.187 354.032 248.187C356.019 248.187 357.891 248.395 358.194 248.65C358.495 248.904 359.877 249.105 361.264 249.097C362.65 249.089 366.29 249.207 369.352 249.359C381.009 249.939 388.408 250.1 439.87 250.896C463.798 251.266 484.202 251.811 494.614 252.36C496.655 252.467 501.665 252.641 505.748 252.744C509.83 252.848 515.885 253.069 519.202 253.236C522.519 253.401 528.156 253.624 531.728 253.729C559.837 254.559 568.913 254.859 581.368 255.366C594.213 255.89 589.175 255.834 636.576 255.981C671.059 256.088 703.556 255.742 713.125 255.167C721.197 254.682 738.058 253.975 741.424 253.981C743.466 253.985 749.729 253.877 755.342 253.742C766.621 253.472 797.825 253.034 808.694 252.995C812.522 252.981 818.514 252.761 822.01 252.507C825.507 252.252 831.77 251.932 835.928 251.794C840.087 251.657 845.368 251.339 847.664 251.089C854.845 250.306 861.806 249.645 868.526 249.107C872.091 248.822 876.422 248.281 878.15 247.905C879.88 247.528 882.255 247.22 883.431 247.22C884.547 247.22 888.795 246.837 893.079 246.354L893.755 246.277C898.26 245.758 905.702 244.981 910.295 244.55C914.888 244.12 919.481 243.564 920.501 243.316C922.089 242.93 936.099 241.968 941.842 241.85C942.863 241.829 946.621 241.611 950.193 241.366C956.927 240.904 967.691 240.508 981.276 240.223C1001.21 239.805 1013.73 239.393 1018.85 238.988C1021.92 238.746 1028.18 238.424 1032.77 238.273C1037.37 238.121 1043.21 237.905 1045.76 237.792C1048.31 237.678 1054.37 237.459 1059.22 237.305C1064.06 237.15 1070.33 236.809 1073.13 236.546C1075.94 236.283 1080.95 235.967 1084.27 235.845C1087.59 235.722 1093.64 235.286 1097.72 234.875C1101.81 234.464 1106.19 234.055 1107.47 233.966C1112.94 233.582 1131.08 231.215 1131.54 230.823C1131.82 230.588 1134.56 230.026 1137.62 229.576C1150.03 227.75 1165.92 224.318 1165.92 223.463C1165.92 223.234 1166.7 223.047 1167.66 223.047C1168.62 223.047 1169.92 222.721 1170.56 222.322C1171.2 221.923 1172.48 221.597 1173.41 221.597C1174.34 221.597 1175.44 221.3 1175.85 220.937C1176.26 220.574 1178.05 219.891 1179.84 219.419C1181.62 218.947 1183.29 218.409 1183.55 218.224C1183.8 218.039 1185.89 217.315 1188.19 216.615C1192.86 215.191 1228.19 197.116 1231.8 194.3C1233.07 193.306 1234.74 192.131 1235.51 191.69C1237.85 190.344 1242.93 186.016 1242.93 185.371C1242.93 185.038 1243.77 184.211 1244.79 183.535C1245.81 182.859 1246.64 182.005 1246.64 181.637C1246.64 181.269 1247.9 179.745 1249.43 178.25C1250.96 176.755 1252.21 175.171 1252.21 174.73L1252.22 174.64C1252.27 174.213 1252.67 173.689 1253.15 173.437C1253.67 173.167 1254.66 171.438 1255.36 169.593C1256.06 167.749 1257.1 165.628 1257.67 164.88C1258.24 164.131 1258.71 162.95 1258.71 162.255C1258.71 161.56 1259.09 160.323 1259.55 159.507C1262.46 154.381 1263.35 152.436 1263.79 150.286C1264.05 148.957 1264.49 147.217 1264.76 146.419C1266.4 141.487 1269.76 126.676 1269.32 126.304C1269.09 126.111 1269.3 125.401 1269.79 124.727C1270.29 124.053 1270.92 120.717 1271.21 117.314C1271.49 113.911 1271.96 108.624 1272.24 105.567C1273.8 88.6929 1273 78.7515 1269.46 71.241C1268.77 69.7785 1268.17 68.1468 1268.13 67.615C1267.9 64.823 1265.66 59.7124 1263.88 57.9458C1263.08 57.1481 1262.42 55.9516 1262.41 55.2868C1262.36 52.0065 1249.16 42.7996 1241.19 40.4852C1235.73 38.9014 1234.63 38.5403 1232.96 37.7793C1230.87 36.824 1220.53 34.017 1219.11 34.0156C1218.51 34.0151 1216.12 33.257 1213.79 32.3312C1209.04 30.4404 1222.46 25.7958 1220.46 25.7958C1219.75 25.7958 1217.79 25.3617 1216.12 24.8308C1214.45 24.3 1212.13 23.8649 1210.96 23.8639C1209.79 23.863 1207.2 23.4269 1205.2 22.8951C1203.2 22.3633 1200.81 21.9281 1199.89 21.9281C1198.41 21.9281 1173.76 15.692 1171.36 14.7091C1170.83 14.4945 1168.87 14.0618 1167 13.7475C1165.13 13.4333 1163.09 12.8614 1162.48 12.476C1161.86 12.0907 1160.3 11.7755 1159 11.7755C1157.7 11.7755 1155.97 11.469 1155.17 11.0943C1154.36 10.7192 1152.04 10.2773 1150.01 10.1119C1147.98 9.94658 1145.91 9.60043 1145.42 9.34323C1144.92 9.08554 1143.54 8.87475 1142.34 8.87475C1141.14 8.87475 1139.03 8.58323 1137.65 8.22644C1136.27 7.87013 1132.05 7.30013 1128.26 6.95977C1124.48 6.61942 1120 6.03878 1118.3 5.6699C1116.61 5.30103 1111.98 4.7668 1108.02 4.48301C1104.06 4.19971 1100.42 3.76604 1099.93 3.52045C1099.45 3.27436 1097.91 3.07325 1096.51 3.07325C1095.11 3.07325 1093.74 2.87986 1093.45 2.64297C1093.17 2.40656 1091.38 2.07539 1089.46 1.90666C1080.11 1.08575 1072.15 0.581982 1063.6 0.271601C1049.81 -0.229263 955.547 0.00956278 943.698 0.606151C938.084 0.88849 926.454 1.33617 917.852 1.60014C909.251 1.86411 900.9 2.30019 899.295 2.56899C895.592 3.18879 878.09 4.09672 864.83 4.35682C859.216 4.46705 853.58 4.70008 852.304 4.87461C851.028 5.04962 839.337 5.23478 826.324 5.28651C803.87 5.37595 795.344 5.58142 786.89 6.23699C769.914 7.55345 743.171 8.81624 724.723 9.17206C707.398 9.50662 705.547 9.57285 694.104 10.2676C689 10.5775 680.232 10.9391 674.618 11.0711C669.005 11.2036 663.577 11.4042 662.556 11.5173C659.763 11.8267 606.836 12.8304 596.678 12.7666C595.658 12.7598 592.629 12.9851 589.948 13.2665C585.195 13.7659 577.58 14.1831 573.119 14.1894C571.898 14.1908 569.24 14.4248 567.213 14.7096C565.185 14.9939 561.8 15.3231 559.689 15.4411C557.579 15.5585 552.094 15.8936 547.502 16.1856C542.909 16.4776 527.669 16.7967 513.635 16.8948C483.524 17.1056 464.51 18.0464 453.324 19.8792C450.179 20.3941 443.642 21.0318 432.772 21.8841C429.888 22.1099 427.151 22.4169 426.688 22.5658C425.301 23.0125 404.472 23.5791 392.549 23.495C386.425 23.4515 373.064 23.1575 362.857 22.8418C344.862 22.2849 325.176 22.1655 288.629 22.3927C278.932 22.4527 269.329 22.3763 267.288 22.2225C265.246 22.0688 261.697 21.8522 259.401 21.741C257.104 21.6298 251.677 21.1647 247.339 20.7079C238.537 19.7801 236.125 19.6839 213.008 19.3397C198.489 19.1236 185.766 18.7818 174.587 18.3065C169.942 18.1093 154.997 17.5688 148.058 17.3468C131.597 16.8208 125.02 16.5032 122.542 16.1145C119.181 15.5875 72.5438 15.1993 70.8486 15.6842C70.1917 15.8723 67.3571 16.1483 64.5503 16.2973C61.7435 16.4462 57.7695 16.9934 55.7189 17.5132C53.6693 18.0329 50.329 18.6169 48.296 18.8112C46.264 19.0056 43.7774 19.46 42.7706 19.8212C41.7648 20.1823 40.2366 20.4777 39.3747 20.4777C36.0177 20.4777 18.2872 28.742 15.7745 31.4783C14.8597 32.4743 13.6052 34.8123 12.9863 36.6731C11.9703 39.7271 12.0297 40.2299 13.5922 41.8258C14.5451 42.7985 15.8423 43.6847 16.4751 43.7945C18.495 44.1454 17.5486 63.0951 15.382 65.6811C14.9367 66.2129 14.3196 67.4095 14.0107 68.3401C12.2672 73.59 10.5061 79.4336 10.2204 80.9101C9.2526 85.9202 8.6532 88.0164 7.94153 88.8871C7.50637 89.419 6.93944 91.9209 6.68335 94.4469C6.42634 96.973 5.56992 102.086 4.78031 105.808C3.9907 109.531 3.38481 113.556 3.43399 114.752C3.51842 116.81 2.76314 133.18 1.8724 148.594C1.64971 152.45 1.27393 159.819 1.03732 164.971C0.800716 170.122 0.439778 174.425 0.234721 174.531ZM1205.8 104.846C1206.91 104.49 1208.6 104.942 1208.6 105.595C1208.6 106.183 1206.09 106.187 1205.39 105.6C1205.1 105.352 1205.28 105.013 1205.8 104.846ZM1154.79 179.323C1154.79 178.908 1155.2 178.569 1155.71 178.569C1156.22 178.569 1156.64 178.773 1156.64 179.024C1156.64 179.274 1156.22 179.613 1155.71 179.777C1155.2 179.942 1154.79 179.737 1154.79 179.323ZM1102.83 17.8995C1103.95 17.3121 1104.94 17.5654 1104.4 18.3022C1104.1 18.7011 1103.49 19.0274 1103.04 19.0274C1102.06 19.0274 1101.94 18.3612 1102.83 17.8995ZM1020.25 133.124C1020.25 132.858 1020.66 132.64 1021.17 132.64C1021.68 132.64 1022.1 132.858 1022.1 133.124C1022.1 133.39 1021.68 133.607 1021.17 133.607C1020.66 133.607 1020.25 133.39 1020.25 133.124ZM1019.32 217.729C1019.32 217.463 1019.74 217.246 1020.25 217.246C1020.76 217.246 1021.17 217.463 1021.17 217.729C1021.17 217.995 1020.76 218.212 1020.25 218.212C1019.74 218.212 1019.32 217.995 1019.32 217.729ZM1045.61 13.7379C1045.61 13.4874 1046.02 13.1485 1046.53 12.9842C1047.05 12.8198 1047.46 13.0248 1047.46 13.4391C1047.46 13.8534 1047.05 14.1928 1046.53 14.1928C1046.02 14.1928 1045.61 13.9883 1045.61 13.7379ZM1045.61 29.18C1045.61 28.2774 1045.85 28.1488 1046.72 28.5999C1047.59 29.0509 1047.59 29.3091 1046.72 29.7602C1045.85 30.2112 1045.61 30.0826 1045.61 29.18ZM1033.54 31.6258C1033.54 31.3754 1033.96 31.0365 1034.47 30.8721C1034.98 30.7078 1035.4 30.9127 1035.4 31.3271C1035.4 31.7414 1034.98 32.0808 1034.47 32.0808C1033.96 32.0808 1033.54 31.8763 1033.54 31.6258ZM883.851 91.0628C883.851 90.5309 884.268 90.0958 884.779 90.0958C885.289 90.0958 885.707 90.5309 885.707 91.0628C885.707 91.5946 885.289 92.0297 884.779 92.0297C884.268 92.0297 883.851 91.5946 883.851 91.0628ZM879.212 31.3271C879.212 30.9127 879.629 30.7077 880.14 30.8721C880.65 31.0365 881.067 31.3754 881.067 31.6258C881.067 31.8763 880.65 32.0808 880.14 32.0808C879.629 32.0808 879.212 31.7414 879.212 31.3271ZM877.356 107.017C877.356 106.751 877.773 106.533 878.284 106.533C878.794 106.533 879.212 106.751 879.212 107.017C879.212 107.283 878.794 107.5 878.284 107.5C877.773 107.5 877.356 107.283 877.356 107.017ZM865.184 91.5462C865.695 91.5462 866.37 91.7638 866.686 92.0297C867.001 92.2956 866.841 92.5131 866.331 92.5131C865.821 92.5131 865.145 92.2956 864.83 92.0297C864.514 91.7638 864.674 91.5462 865.184 91.5462ZM864.775 28.2131C865.57 28.2131 866.222 28.4307 866.222 28.6966C866.222 28.9625 865.829 29.18 865.349 29.18C864.868 29.18 864.217 28.9625 863.902 28.6966C863.587 28.4307 863.98 28.2131 864.775 28.2131ZM812.406 96.3407C812.406 95.7499 812.885 95.4163 813.566 95.5347C815.321 95.8393 815.571 97.3477 813.865 97.3477C813.005 97.3477 812.406 96.9344 812.406 96.3407ZM800.344 95.8973C800.344 95.6314 800.761 95.4139 801.271 95.4139C801.782 95.4139 802.199 95.6314 802.199 95.8973C802.199 96.1632 801.782 96.3808 801.271 96.3808C800.761 96.3808 800.344 96.1632 800.344 95.8973ZM791.993 207.576C791.993 207.31 792.41 207.093 792.921 207.093C793.431 207.093 793.849 207.31 793.849 207.576C793.849 207.842 793.431 208.06 792.921 208.06C792.41 208.06 791.993 207.842 791.993 207.576ZM733.538 215.041C733.538 214.924 733.955 214.828 734.465 214.828C734.976 214.828 735.393 215.059 735.393 215.34C735.393 215.622 734.976 215.718 734.465 215.553C733.955 215.389 733.538 215.159 733.538 215.041ZM704.606 209.994C705.727 209.994 707.034 210.911 706.391 211.246C706.157 211.368 705.438 211.136 704.792 210.73C704.06 210.271 703.99 209.994 704.606 209.994ZM699.803 34.3482C700.156 34.165 701.209 34.0146 702.145 34.0146C703.995 34.0146 704.47 35.2068 702.829 35.7352C701.641 36.1181 698.856 34.8418 699.803 34.3482ZM687.663 217.729C688.458 217.729 688.847 217.95 688.527 218.22C688.206 218.49 687.556 218.587 687.081 218.433C685.794 218.019 686.033 217.729 687.663 217.729ZM653.742 209.994C653.742 209.728 654.159 209.51 654.669 209.51C655.18 209.51 655.597 209.728 655.597 209.994C655.597 210.26 655.18 210.477 654.669 210.477C654.159 210.477 653.742 210.26 653.742 209.994ZM650.03 113.032C650.03 112.914 650.448 112.818 650.958 112.818C651.468 112.818 651.886 113.049 651.886 113.33C651.886 113.612 651.468 113.708 650.958 113.544C650.448 113.379 650.03 113.149 650.03 113.032ZM615.364 191.958C616.106 191.571 617.555 192.008 617.555 192.618C617.555 192.868 616.929 193.073 616.163 193.073C614.729 193.073 614.32 192.502 615.364 191.958ZM586.998 175.407C587.542 175.231 588.21 175.204 588.482 175.346C589.147 175.692 587.976 176.635 586.881 176.635C585.695 176.635 585.774 175.801 586.998 175.407ZM560.621 181.805C561.362 181.419 562.811 181.855 562.811 182.465C562.811 182.715 562.185 182.92 561.419 182.92C559.985 182.92 559.576 182.349 560.621 181.805ZM503.304 218.494C503.951 218.286 504.73 218.246 505.036 218.406C505.867 218.838 504.646 219.31 503.3 219.076C502.357 218.913 502.357 218.799 503.304 218.494ZM503.428 102.666C503.428 102.4 503.846 102.182 504.356 102.182C504.866 102.182 505.284 102.4 505.284 102.666C505.284 102.932 504.866 103.149 504.356 103.149C503.846 103.149 503.428 102.932 503.428 102.666ZM470.953 164.037C470.953 163.755 471.371 163.659 471.881 163.823C472.391 163.988 472.809 164.218 472.809 164.335C472.809 164.453 472.391 164.548 471.881 164.548C471.371 164.548 470.953 164.318 470.953 164.037ZM463.53 173.763C463.53 173.512 463.919 173.183 464.394 173.03C465.419 172.7 466.527 173.462 465.67 173.909C464.787 174.368 463.53 174.282 463.53 173.763ZM418.993 157.297C418.993 157.031 419.436 156.813 419.976 156.813C420.516 156.813 420.7 157.031 420.385 157.297C420.069 157.563 419.628 157.78 419.402 157.78C419.177 157.78 418.993 157.563 418.993 157.297ZM347.18 119.456C347.552 119.262 348.497 119.103 349.28 119.103C350.324 119.103 350.428 119.246 349.671 119.641C349.103 119.937 348.158 120.096 347.571 119.994C346.984 119.892 346.808 119.65 347.18 119.456ZM303.01 68.8086C303.01 68.285 303.168 67.8567 303.361 67.8567C303.553 67.8567 304.191 68.1574 304.776 68.5253C305.597 69.0412 305.517 69.2587 304.426 69.4773C303.453 69.6716 303.01 69.4627 303.01 68.8086ZM292.804 97.6295C292.804 97.2089 293.465 96.8642 294.273 96.8642C295.911 96.8642 295.626 97.9051 293.906 98.2039C293.299 98.3093 292.804 98.0506 292.804 97.6295ZM286.696 71.2409C287.504 71.2409 288.165 71.5856 288.165 72.0062C288.165 72.86 286.167 72.7116 285.594 71.8153C285.391 71.4991 285.888 71.2409 286.696 71.2409ZM271.617 72.7962C272.298 72.9132 272.994 73.5054 273.165 74.1127C273.375 74.8625 273.079 75.1482 272.237 75.0037C271.556 74.8867 270.86 74.2944 270.689 73.6872C270.479 72.9374 270.776 72.6516 271.617 72.7962ZM244.555 99.0799C244.555 98.6593 245.216 98.3146 246.024 98.3146C247.663 98.3146 247.378 99.3555 245.657 99.6543C245.051 99.7597 244.555 99.501 244.555 99.0799ZM211.152 64.2308C211.152 63.8319 211.57 63.5056 212.08 63.5056C212.59 63.5056 213.008 63.8319 213.008 64.2308C213.008 64.6296 212.59 64.9559 212.08 64.9559C211.57 64.9559 211.152 64.6296 211.152 64.2308ZM124.861 181.953C124.861 181.687 125.279 181.47 125.789 181.47C126.299 181.47 126.717 181.687 126.717 181.953C126.717 182.219 126.299 182.436 125.789 182.436C125.279 182.436 124.861 182.219 124.861 181.953ZM123.996 121.743C124.539 121.567 125.207 121.54 125.48 121.682C126.144 122.028 124.973 122.971 123.879 122.971C122.693 122.971 122.772 122.137 123.996 121.743Z" fill="black"/>
</svg>
