<svg width="202" height="183" viewBox="0 0 202 183" fill="none" xmlns="http://www.w3.org/2000/svg">
<path d="M133.939 182.508H25.7508C11.9897 182.508 0.794067 171.312 0.794067 157.551V94.3332C0.794067 80.5721 11.9897 69.3765 25.7508 69.3765H133.939C147.7 69.3765 158.896 80.5721 158.896 94.3332V157.551C158.896 171.312 147.7 182.508 133.939 182.508ZM25.7508 76.0925C15.6969 76.0925 7.51008 84.2726 7.51008 94.3332V157.551C7.51008 167.605 15.6902 175.792 25.7508 175.792H133.939C143.993 175.792 152.18 167.612 152.18 157.551V94.3332C152.18 84.2793 144 76.0925 133.939 76.0925H25.7508Z" fill="#FED100"/>
<path d="M45.2742 76.0925C27.1342 76.0925 12.3724 61.3307 12.3724 43.1907C12.3724 25.0507 27.1342 10.2889 45.2742 10.2889C63.4142 10.2889 78.176 25.0507 78.176 43.1907C78.176 61.3307 63.4209 76.0925 45.2742 76.0925ZM45.2742 17.005C30.8348 17.005 19.0885 28.7513 19.0885 43.1907C19.0885 57.6301 30.8348 69.3764 45.2742 69.3764C59.7136 69.3764 71.4599 57.6301 71.4599 43.1907C71.4599 28.7513 59.7136 17.005 45.2742 17.005Z" fill="#FED100"/>
<path d="M113.193 76.0925C92.2125 76.0925 75.1471 59.0271 75.1471 38.0462C75.1471 17.0654 92.2125 0 113.193 0C134.174 0 151.24 17.0654 151.24 38.0462C151.24 59.0271 134.174 76.0925 113.193 76.0925ZM113.193 6.71602C95.9197 6.71602 81.8631 20.7726 81.8631 38.0462C81.8631 55.3198 95.9197 69.3764 113.193 69.3764C130.467 69.3764 144.524 55.3198 144.524 38.0462C144.524 20.7726 130.474 6.71602 113.193 6.71602Z" fill="#FED100"/>
<path d="M190.468 172.743C187.17 172.743 184.645 171.272 183.806 170.708L152.18 150.029V109.33L185.182 87.3284L185.417 87.2209C186.566 86.6904 190.656 85.1255 195.189 87.2209C200.179 89.5245 201.482 94.3869 201.697 95.3339L201.778 95.6898V162.36L201.744 162.601C201.072 167.209 197.869 171.01 193.584 172.286C192.489 172.608 191.442 172.743 190.468 172.743ZM158.896 146.396L187.506 165.1C187.869 165.342 189.669 166.443 191.67 165.852C193.389 165.342 194.699 163.784 195.055 161.849V96.5092C194.84 95.8309 194.141 94.1384 192.368 93.3191C190.649 92.5266 189.004 93.0168 188.426 93.2385L158.896 112.93V146.396Z" fill="#FED100"/>
</svg>
