<svg width="172" height="201" viewBox="0 0 172 201" fill="none" xmlns="http://www.w3.org/2000/svg">
<path d="M144.312 120.17H27.4804C25.6335 120.17 24.1426 121.661 24.1426 123.508C24.1426 125.354 25.6335 126.845 27.4804 126.845H144.312C146.159 126.845 147.65 125.354 147.65 123.508C147.65 121.661 146.159 120.17 144.312 120.17Z" fill="#FED100"/>
<path d="M100.92 103.48H144.312C146.159 103.48 147.65 101.989 147.65 100.143C147.65 98.2956 146.159 96.8047 144.312 96.8047H100.92C99.0732 96.8047 97.5823 98.2956 97.5823 100.143C97.5823 101.989 99.0732 103.48 100.92 103.48Z" fill="#FED100"/>
<path d="M100.92 80.1086H144.312C146.159 80.1086 147.65 78.6176 147.65 76.7707C147.65 74.9238 146.159 73.4329 144.312 73.4329H100.92C99.0732 73.4329 97.5823 74.9238 97.5823 76.7707C97.5823 78.6176 99.0732 80.1086 100.92 80.1086Z" fill="#FED100"/>
<path d="M100.92 56.7437H144.312C146.159 56.7437 147.65 55.2528 147.65 53.4059C147.65 51.5589 146.159 50.068 144.312 50.068H100.92C99.0732 50.068 97.5823 51.5589 97.5823 53.4059C97.5823 55.2528 99.0732 56.7437 100.92 56.7437Z" fill="#FED100"/>
<path d="M144.312 160.224H27.4804C25.6335 160.224 24.1426 161.715 24.1426 163.562C24.1426 165.409 25.6335 166.9 27.4804 166.9H144.312C146.159 166.9 147.65 165.409 147.65 163.562C147.65 161.715 146.159 160.224 144.312 160.224Z" fill="#FED100"/>
<path d="M27.4804 146.872H74.2105C76.0574 146.872 77.5483 145.382 77.5483 143.535C77.5483 141.688 76.0574 140.197 74.2105 140.197H27.4804C25.6335 140.197 24.1426 141.688 24.1426 143.535C24.1426 145.382 25.6335 146.872 27.4804 146.872Z" fill="#FED100"/>
<path d="M144.312 140.197H100.92C99.0732 140.197 97.5823 141.688 97.5823 143.535C97.5823 145.382 99.0732 146.872 100.92 146.872H144.312C146.159 146.872 147.65 145.382 147.65 143.535C147.65 141.688 146.159 140.197 144.312 140.197Z" fill="#FED100"/>
<path d="M89.9327 145.905C90.5305 145.274 90.8998 144.401 90.8998 143.535C90.8998 142.662 90.5305 141.795 89.9327 141.197C88.697 139.928 86.3934 139.928 85.1912 141.164C84.5868 141.795 84.2241 142.662 84.2241 143.535C84.2241 144.401 84.5868 145.267 85.1912 145.905C85.8225 146.503 86.6553 146.872 87.562 146.872C88.4351 146.872 89.3014 146.503 89.9327 145.905Z" fill="#FED100"/>
<path d="M167.677 13.3514H84.2241V3.33786C84.2241 1.49096 82.7331 0 80.8862 0H27.4805C25.6336 0 24.1426 1.49096 24.1426 3.33786V13.3514H4.11545C2.26854 13.3514 0.777588 14.8424 0.777588 16.6893V196.94C0.777588 198.787 2.26854 200.278 4.11545 200.278H167.677C169.524 200.278 171.015 198.787 171.015 196.94V16.6893C171.015 14.8424 169.524 13.3514 167.677 13.3514ZM30.8183 16.6893V6.67572H77.5484V16.6893V90.1222L56.1847 74.0978C55.0027 73.2046 53.3707 73.2046 52.182 74.0978L30.8183 90.1222V16.6893ZM164.339 193.603H7.45331V20.0272H24.1426V96.7979C24.1426 98.0606 24.8545 99.2157 25.9895 99.7866C27.1178 100.351 28.4744 100.237 29.4818 99.4709L54.1833 80.9481L78.8849 99.4709C79.1602 99.6791 79.4624 99.8269 79.7781 99.941C79.8923 99.9813 80.0064 99.9948 80.1273 100.022C80.3355 100.069 80.537 100.109 80.7452 100.122C80.7922 100.122 80.8392 100.143 80.893 100.143C80.9467 100.143 81.0004 100.109 81.0541 100.102C81.5108 100.082 81.9608 100.001 82.3839 99.7866C83.5055 99.2224 84.2241 98.0673 84.2241 96.7979V20.0272H164.339V193.603Z" fill="#FED100"/>
</svg>
