<svg width="202" height="202" viewBox="0 0 202 202" fill="none" xmlns="http://www.w3.org/2000/svg">
<path d="M193.067 90.6662H181.348V69.6182C181.348 64.5611 177.231 60.4441 172.173 60.4441H161.2V52.3379L159.541 50.6791C159.534 50.6791 159.534 50.6723 159.534 50.6723L135.034 26.1723L108.862 0H26.8792V36.9381H9.18921C4.13205 36.9381 0.0151367 41.055 0.0151367 46.1122V192.824H0.0352848C0.0151367 194.717 0.606146 196.564 1.78816 198.116C3.43359 200.265 5.92523 201.494 8.63179 201.494H158.93C162.811 201.494 166.23 198.881 167.157 195.402L201.496 101.244V100.653C201.496 94.8637 197.95 90.6662 193.067 90.6662ZM172.173 67.1602C173.53 67.1602 174.632 68.2616 174.632 69.6182V90.6662H161.2V67.1602H172.173ZM110.829 11.471L149.735 50.3701H110.829V11.471ZM33.5952 6.71602H104.113V57.0861H154.484V60.4441V90.6662H42.7626C42.2857 90.6662 41.8089 90.7065 41.3455 90.7871C38.0748 91.3311 35.3481 93.7153 34.5355 96.7576L33.5952 99.35V36.9381V6.71602ZM6.73115 46.1122C6.73115 44.7555 7.8393 43.6541 9.18921 43.6541H26.8792V117.651L6.73115 172.602V46.1122ZM160.763 193.374C160.541 194.194 159.789 194.771 158.936 194.771H8.63179C7.81243 194.771 7.33559 194.301 7.1274 194.026C6.91249 193.75 6.59012 193.166 6.711 192.656L26.8792 137.343V137.363L40.8485 99.0679L40.9358 98.7926C41.1575 97.9732 41.9164 97.3957 42.7626 97.3957H154.484H161.2H181.348H193.067C194.343 97.3957 194.672 99.2291 194.753 100.149L160.763 193.374Z" fill="#FED100"/>
<path d="M53.7433 57.0861H87.3233C89.177 57.0861 90.6814 55.5817 90.6814 53.7281C90.6814 51.8745 89.177 50.3701 87.3233 50.3701H53.7433C51.8896 50.3701 50.3853 51.8745 50.3853 53.7281C50.3853 55.5885 51.8896 57.0861 53.7433 57.0861Z" fill="#FED100"/>
<path d="M53.7433 33.58H87.3233C89.177 33.58 90.6814 32.0824 90.6814 30.222C90.6814 28.3617 89.177 26.864 87.3233 26.864H53.7433C51.8896 26.864 50.3853 28.3617 50.3853 30.222C50.3853 32.0824 51.8896 33.58 53.7433 33.58Z" fill="#FED100"/>
<path d="M53.7433 80.5921H134.335C136.189 80.5921 137.693 79.0877 137.693 77.2341C137.693 75.3805 136.189 73.8761 134.335 73.8761H53.7433C51.8896 73.8761 50.3853 75.3805 50.3853 77.2341C50.3853 79.0877 51.8896 80.5921 53.7433 80.5921Z" fill="#FED100"/>
</svg>
