<svg width="199" height="199" viewBox="0 0 199 199" fill="none" xmlns="http://www.w3.org/2000/svg">
<path d="M99.397 0C44.5876 0 0 44.5876 0 99.397C0 154.206 44.5876 198.794 99.397 198.794C154.206 198.794 198.794 154.206 198.794 99.397C198.794 44.5876 154.206 0 99.397 0ZM99.397 191.151C48.8053 191.151 7.64283 149.989 7.64283 99.397C7.64283 48.8053 48.8053 7.64283 99.397 7.64283C149.989 7.64283 191.151 48.8053 191.151 99.397C191.151 149.989 149.989 191.151 99.397 191.151Z" fill="#FED100"/>
<path d="M99.3971 141.453C97.2816 141.453 95.5757 143.159 95.5757 145.274V152.917C95.5757 155.032 97.2816 156.738 99.3971 156.738C101.513 156.738 103.219 155.032 103.219 152.917V145.274C103.219 143.159 101.513 141.453 99.3971 141.453Z" fill="#FED100"/>
<path d="M99.8268 34.4128C99.6791 34.4128 99.538 34.4061 99.3903 34.4061C91.3042 34.4061 83.6949 37.5224 77.9259 43.2175C72.0561 49.0067 68.819 56.7436 68.819 64.9909C68.819 67.1064 70.5248 68.8123 72.6404 68.8123C74.7559 68.8123 76.4618 67.1064 76.4618 64.9909C76.4618 58.8054 78.8863 53.0028 83.292 48.6575C87.6977 44.3123 93.5675 41.9079 99.7261 42.0557C111.808 42.2236 122.164 52.5797 122.332 64.6618C122.446 72.627 118.511 79.9609 111.815 84.2793C101.647 90.8408 95.5756 102.433 95.5756 115.294V126.16C95.5756 128.276 97.2814 129.982 99.397 129.982C101.513 129.982 103.218 128.276 103.218 126.16V115.294C103.218 105.193 108.094 95.7771 115.959 90.7065C124.884 84.9509 130.129 75.1723 129.975 64.5543C129.747 48.1672 116.221 34.6412 99.8268 34.4128Z" fill="#FED100"/>
</svg>
