<svg width="202" height="148" viewBox="0 0 202 148" fill="none" xmlns="http://www.w3.org/2000/svg">
<path fill-rule="evenodd" clip-rule="evenodd" d="M76.6137 95.0102L64.424 88.7593V87.4554C69.8795 84.4647 73.7151 79.5381 75.8572 72.7765C79.1038 71.0493 81.1789 67.6819 81.1789 63.9045V60.5439C81.1789 57.4321 79.7331 54.5421 77.3232 52.64C75.2347 39.9236 66.3986 33.4778 51.0293 33.4778C50.6653 33.4778 50.3062 33.4844 49.9522 33.4978C49.7687 33.5047 49.5866 33.5136 49.4057 33.5241C49.2362 33.5339 49.0678 33.5454 48.9006 33.5585C46.0088 33.8004 41.7715 33.5451 38.1032 31.0719C36.7309 30.1441 35.7001 29.2436 35.0374 28.4035C33.9128 26.9585 32.0184 26.4544 30.3382 27.1465C28.658 27.839 27.6673 29.5258 27.8815 31.3407C28.0221 32.5976 28.2363 34.0626 28.5509 35.6691C28.9391 37.6303 29.0952 38.4186 28.9634 39.1553C28.8747 39.6506 28.6559 40.1225 28.2898 40.9114L28.1703 41.1717C27.8517 41.8664 27.4704 42.6971 27.0313 43.7814C25.9202 46.5102 25.137 49.4944 24.6817 52.6869C22.3054 54.5891 20.8796 57.459 20.8796 60.5439V63.9045C20.8796 67.6753 22.9547 71.0424 26.2013 72.7765C28.3434 79.5446 32.179 84.4713 37.628 87.4554V88.7193L25.0031 94.9698C20.391 97.4902 17.5259 102.336 17.5259 107.612V112.068C17.5259 114.77 17.5259 121.088 51.0293 121.088C84.5259 121.088 84.5259 114.77 84.5259 112.068V107.881C84.5259 102.397 81.4936 97.4699 76.6137 95.0102ZM77.8252 111.309C75.7367 112.586 67.2354 114.36 51.0226 114.36C34.8164 114.36 26.3151 112.586 24.2199 111.309V107.612C24.2199 104.803 25.7461 102.222 28.0756 100.945L40.995 94.553C43.0099 93.5652 44.3085 91.4681 44.3085 89.2099V83.1474L42.2869 82.2735C37.2062 80.0756 33.8994 75.8818 32.1857 69.4429L31.7104 67.6484L29.95 67.097C28.5509 66.6537 27.5669 65.3498 27.5669 63.9114V60.5508C27.5669 59.3342 28.2631 58.205 29.3809 57.607L30.9541 56.7669L31.1414 54.9855C31.4761 51.8333 32.1723 48.923 33.2233 46.3422C33.6718 45.2467 34.0467 44.4335 34.3546 43.7614C35.4925 41.3148 35.9009 40.0513 35.6198 37.457C39.5625 39.7152 44.2951 40.6765 49.4294 40.2866C49.9449 40.2393 50.4804 40.2193 51.0293 40.2193C63.5738 40.2193 69.6921 44.783 70.8903 55.0124L71.0978 56.7669L72.6575 57.5936C73.7754 58.1915 74.4782 59.3273 74.4782 60.5508V63.9114C74.4782 65.3498 73.4942 66.6602 72.0952 67.097L70.3347 67.6484L69.8528 69.4429C68.1391 75.8749 64.8323 80.0691 59.7515 82.2735L57.73 83.154V89.2434C57.73 91.495 58.9683 93.5248 60.9564 94.5396L73.6014 101.025C76.2053 102.33 77.8252 104.964 77.8252 107.881V111.309Z" fill="#FED100"/>
<path d="M134.771 50.4556H101.274C99.42 50.4556 97.9272 48.9499 97.9272 47.095C97.9272 45.2401 99.42 43.7344 101.274 43.7344H134.771C136.618 43.7344 138.118 45.2333 138.118 47.095C138.118 48.9499 136.625 50.4556 134.771 50.4556Z" fill="#FED100"/>
<path d="M148.172 50.4556H151.519C153.373 50.4556 154.866 48.9499 154.866 47.095C154.866 45.2333 153.367 43.7344 151.519 43.7344H148.172C146.318 43.7344 144.819 45.2401 144.819 47.095C144.825 48.9499 146.325 50.4556 148.172 50.4556Z" fill="#FED100"/>
<path d="M101.274 100.912H104.621C106.475 100.912 107.968 102.417 107.968 104.272C107.968 106.127 106.475 107.633 104.621 107.633H101.274C99.4267 107.633 97.9272 106.127 97.9272 104.272C97.9272 102.417 99.42 100.912 101.274 100.912Z" fill="#FED100"/>
<path d="M124.723 100.912H118.023C116.168 100.912 114.669 102.417 114.669 104.272C114.669 106.127 116.168 107.633 118.023 107.633H124.723C126.577 107.633 128.07 106.127 128.07 104.272C128.07 102.417 126.577 100.912 124.723 100.912Z" fill="#FED100"/>
<path d="M138.125 100.912H141.472C143.326 100.912 144.819 102.417 144.819 104.272C144.819 106.127 143.326 107.633 141.472 107.633H138.125C136.277 107.633 134.778 106.127 134.778 104.272C134.778 102.417 136.27 100.912 138.125 100.912Z" fill="#FED100"/>
<path d="M161.574 100.912H154.873C153.019 100.912 151.519 102.417 151.519 104.272C151.519 106.127 153.019 107.633 154.873 107.633H161.574C163.428 107.633 164.921 106.127 164.921 104.272C164.921 102.417 163.428 100.912 161.574 100.912Z" fill="#FED100"/>
<path d="M171.628 104.272C171.628 103.398 171.989 102.525 172.598 101.886C173.837 100.643 176.079 100.643 177.351 101.886C177.954 102.518 178.322 103.398 178.322 104.272C178.322 105.146 177.954 106.02 177.351 106.658C176.715 107.263 175.845 107.633 174.975 107.633C174.105 107.633 173.228 107.263 172.598 106.658C171.996 106.02 171.628 105.146 171.628 104.272Z" fill="#FED100"/>
<path d="M174.975 63.9114H101.274C99.42 63.9114 97.9272 65.4171 97.9272 67.272C97.9272 69.1337 99.4267 70.6391 101.274 70.6391H174.975C176.829 70.6391 178.329 69.1337 178.329 67.272C178.329 65.4102 176.829 63.9114 174.975 63.9114Z" fill="#FED100"/>
<path d="M101.274 84.0883H174.975C176.829 84.0883 178.329 85.594 178.329 87.4489C178.329 89.3038 176.829 90.8095 174.975 90.8095H101.274C99.4267 90.8095 97.9272 89.3107 97.9272 87.4489C97.9272 85.594 99.42 84.0883 101.274 84.0883Z" fill="#FED100"/>
<path fill-rule="evenodd" clip-rule="evenodd" d="M187.647 0H14.9019C7.11006 0 0.777588 6.36508 0.777588 14.1817V133.818C0.777588 141.642 7.11676 148 14.9019 148H187.653C195.438 148 201.778 141.635 201.778 133.818V14.1883C201.778 6.36508 195.438 0 187.647 0ZM195.077 133.818C195.077 137.932 191.75 141.279 187.653 141.279H14.9019C10.8051 141.279 7.47826 137.932 7.47826 133.818V14.1883C7.47826 10.0752 10.8051 6.72772 14.9019 6.72772H187.653C191.75 6.72772 195.077 10.0683 195.077 14.1883V133.818Z" fill="#FED100"/>
</svg>
