<svg width="200" height="183" viewBox="0 0 200 183" fill="none" xmlns="http://www.w3.org/2000/svg">
<path d="M185.064 146.564L152.485 132.481C151.718 132.098 150.87 131.164 150.136 129.915L171.884 129.901C172.261 129.935 181.234 130.755 188.423 127.671C191.149 126.502 193.175 124.184 193.989 121.328C194.81 118.439 194.292 115.382 192.569 112.936C186.349 104.108 171.844 81.0288 171.386 57.6272C171.38 57.224 170.06 17.4219 130.684 17.0994C124.888 17.1464 119.523 18.1273 114.65 19.9347C113.587 17.227 112.018 14.4051 109.689 11.7512C102.844 3.95066 91.7376 0 76.6668 0C61.5959 0 50.483 3.95066 43.6375 11.7445C35.7487 20.7275 36.4823 31.6254 36.6708 33.4529V51.1502C34.5371 53.5757 33.3389 56.6798 33.3389 59.8847V73.1946C33.3389 77.2461 35.1833 81.022 38.3267 83.5416C41.3826 95.6086 47.7703 104.706 50.005 107.622V118.634C50.005 121.852 48.2482 124.808 45.4145 126.354L15.6766 142.546C6.00411 147.814 0 157.912 0 168.904V183H146.67H153.334H200V170.698C200.007 160.411 194.279 151.166 185.064 146.564ZM146.67 176.348H6.66375V168.904C6.66375 160.351 11.3351 152.49 18.8604 148.391L48.5983 132.199C53.5725 129.485 56.6621 124.284 56.6621 118.634V105.263L55.888 104.336C55.8072 104.242 47.6357 94.3723 44.5192 80.8272L44.2163 79.5103L43.0788 78.778C41.147 77.535 39.996 75.4454 39.996 73.2013V59.8914C39.996 58.0236 40.7902 56.2834 42.2307 54.9867L43.3278 53.999V33.2715L43.3009 32.8348C43.2942 32.7474 42.1566 23.5225 48.6521 16.1251C54.1783 9.83633 63.6018 6.65161 76.6668 6.65161C89.6846 6.65161 99.0879 9.81617 104.621 16.0647C107.374 19.1687 108.754 22.6289 109.447 25.6054C109.501 25.8405 109.548 26.069 109.595 26.2974C109.642 26.5325 109.689 26.7677 109.73 26.9961C109.77 27.2582 109.811 27.5001 109.844 27.7487C109.871 27.9233 109.898 28.1047 109.918 28.2727C109.965 28.6826 110.006 29.0857 110.033 29.4552C110.033 29.4821 110.033 29.509 110.033 29.5426C110.053 29.8987 110.073 30.2413 110.08 30.5504C110.08 30.6109 110.08 30.6579 110.08 30.7184C110.086 30.9938 110.086 31.2559 110.08 31.4843C110.08 31.5179 110.08 31.5515 110.08 31.5851C110.066 32.3645 110.012 32.8348 110.012 32.8415L109.986 53.9923L111.083 54.9867C112.523 56.2834 113.317 58.0236 113.317 59.8914V73.2013C113.317 76.1039 111.413 78.6503 108.579 79.517L106.916 80.0277L106.384 81.6738C104.156 88.6008 100.979 94.9904 96.9407 100.681C95.9513 102.079 94.9887 103.322 94.1473 104.269L93.3194 105.216V118.943C93.3194 119.783 93.4002 120.609 93.5348 121.422C93.5617 121.597 93.6089 121.765 93.6425 121.933C93.7704 122.605 93.9454 123.256 94.1608 123.895C94.2079 124.043 94.2618 124.19 94.3223 124.338C94.5849 125.037 94.8878 125.709 95.2378 126.354C95.2782 126.428 95.3118 126.502 95.3522 126.576C95.8368 127.429 96.3955 128.235 97.035 128.981L97.7956 129.915H97.9235C99.0677 131.037 100.38 132.018 101.875 132.764L133.719 148.653C141.702 152.631 146.656 160.64 146.656 169.549V176.348H146.67ZM193.336 176.348H153.334V169.549C153.334 158.107 146.966 147.82 136.715 142.707L113.856 131.292C114.421 130.009 114.495 128.537 113.997 127.12C113.183 124.775 111.049 123.263 108.565 123.263H101.175C101.02 122.994 100.919 122.699 100.798 122.41C100.629 122.027 100.434 121.651 100.326 121.247C100.125 120.508 100.003 119.736 100.003 118.943V107.696C100.764 106.762 101.572 105.7 102.4 104.531C106.532 98.7059 109.837 92.229 112.247 85.2347C116.952 83.0847 120.001 78.442 120.001 73.2013V59.8914C120.001 56.6865 118.803 53.5824 116.669 51.157V33.4596C116.757 32.6265 116.945 29.9054 116.387 26.3444C120.681 24.658 125.487 23.7913 130.69 23.751C163.497 24.0197 164.689 56.3976 164.723 57.7615C165.214 82.9906 180.54 107.427 187.11 116.759C187.675 117.559 187.844 118.56 187.574 119.514C187.42 120.058 186.982 121.053 185.791 121.563C180.19 123.969 172.591 123.29 172.201 123.27H149.255C147.114 123.27 145.155 124.358 144.024 126.179C142.9 127.993 142.793 130.21 143.735 132.112C144.778 134.208 146.623 137.017 149.652 138.522L182.142 152.571C189.042 156.051 193.323 162.991 193.323 170.711V176.348H193.336Z" fill="#FED100"/>
</svg>
